<svg xmlns="http://www.w3.org/2000/svg" viewBox="0 0 751.51 134.29">
  <defs>
    <style>.cls-1{fill:#231815;}.cls-2{fill:#00afec;}</style>
  </defs>
  <g id="图层_2" data-name="图层 2">
    <g id="图层_1-2" data-name="图层 1">
      <rect class="cls-1" y="58.08" width="15.95" height="76.16"/>
      <rect class="cls-2" y="34.14" width="15.95" height="15.95"/>
      <rect class="cls-1" x="163.29" y="34.14" width="15.95" height="100.1"/>
      <path class="cls-1"
            d="M282,34.14H223.87A28.71,28.71,0,0,0,195.2,62.82v71.42h16V62.82A12.73,12.73,0,0,1,223.87,50.1H282a12.73,12.73,0,0,1,12.72,12.72v71.42h16V62.82A28.72,28.72,0,0,0,282,34.14Z"/>
      <polygon class="cls-1"
               points="31.91 34.14 31.91 50.1 81.64 50.1 81.64 134.24 97.6 134.24 97.6 50.1 147.34 50.1 147.34 34.14 31.91 34.14"/>
      <path
        d="M609.51,86.24H505.09a5.69,5.69,0,0,0-5.69,5.69v36.41a5.69,5.69,0,0,0,5.69,5.69H609.51a5.69,5.69,0,0,0,5.69-5.69V91.93A5.69,5.69,0,0,0,609.51,86.24Zm-5.69,11.38v7.2h-93v-7.2Zm-93,25v-7.2h93v7.2Z"/>
      <path
        d="M515.71,76.94,526.92,62l10,14.69a5.71,5.71,0,0,0,4.7,2.49h14.8V67.83H544.62L537,56.61h19.42V45.22H532.84V34h23.57V22.61H509.27V19.7H497.88v8.6A5.69,5.69,0,0,0,503.57,34h17.89V45.22H497.88V56.61h18.88l-8.44,11.22H497.88V79.22h13.28A5.66,5.66,0,0,0,515.71,76.94Z"/>
      <path
        d="M611,22.61H570a5.69,5.69,0,0,0-5.69,5.69V73.53A5.69,5.69,0,0,0,570,79.22H611a5.69,5.69,0,0,0,5.69-5.69V28.3A5.69,5.69,0,0,0,611,22.61Zm-5.69,45.22h-29.7V34h29.7Z"/>
      <path
        d="M670.71,22.61h-38V34h19V45.22h-19V56.61h19V134h11.39V56.61h19V45.22h-19V34H676.4a5.69,5.69,0,0,0,5.7-5.69V19.7H670.71Z"/>
      <path d="M722.16,38.77v-8.6H710.78v2.91H689.44V44.46h27A5.69,5.69,0,0,0,722.16,38.77Z"/>
      <polygon
        points="751.51 98.08 741.77 98.08 741.77 19.7 730.39 19.7 730.39 98.08 689.44 98.08 689.44 109.46 730.39 109.46 730.39 134.03 741.77 134.03 741.77 109.46 751.51 109.46 751.51 98.08"/>
      <rect x="633.05" y="64.44" width="10.62" height="69.21"/>
      <rect x="671.09" y="64.44" width="10.62" height="69.21"/>
      <path d="M722.16,72.79V64.18H710.78V67.1H689.44V78.48h27A5.69,5.69,0,0,0,722.16,72.79Z"/>
      <polygon class="cls-2" points="440.98 0 440.98 11.38 463.74 11.38 463.74 34.14 475.12 34.14 475.12 0 440.98 0"/>
      <path class="cls-1"
            d="M434.17,133.31l-76.48-36.8a13.68,13.68,0,0,1,0-24.64l76.48-36.8,6.94,14.42L369,84.19l72.12,34.7Z"/>
      <rect class="cls-1" x="326.56" y="34.1" width="16" height="100.19"/>
    </g>
  </g>
</svg>
