<?xml version="1.0" standalone="no"?>
<!DOCTYPE svg PUBLIC "-//W3C//DTD SVG 1.1//EN" "http://www.w3.org/Graphics/SVG/1.1/DTD/svg11.dtd">
<!--Generator: Xara Designer (www.xara.com), SVG filter version: 5.0.0.2-->
<svg stroke-width="0.501" stroke-linejoin="bevel" fill-rule="evenodd" xmlns:xlink="http://www.w3.org/1999/xlink" xmlns="http://www.w3.org/2000/svg" version="1.1" overflow="visible" width="59.244pt" height="59.244pt" viewBox="0 0 59.244 59.244">
    <defs>
        <marker id="DefaultArrow2" markerUnits="strokeWidth" viewBox="0 0 1 1" markerWidth="1" markerHeight="1" overflow="visible" orient="auto">
            <!-- REF_ARROW_STRAIGHT (-2) -->
            <g transform="scale(0.0092592592)">
                <!-- 1/108 -->
                <path d="M -9 54 L -9 -54 L 117 0 z"/>
            </g>
        </marker>
        <marker id="DefaultArrow3" markerUnits="strokeWidth" viewBox="0 0 1 1" markerWidth="1" markerHeight="1" overflow="visible" orient="auto">
            <!-- REF_ARROW_ANGLED -->
            <g transform="scale(0.0092592592)">
                <path d="M -27 54 L -9 0 L -27 -54 L 135 0 z"/>
            </g>
        </marker>
        <marker id="DefaultArrow4" markerUnits="strokeWidth" viewBox="0 0 1 1" markerWidth="1" markerHeight="1" overflow="visible" orient="auto">
            <!-- REF_ARROW_ROUNDED -->
            <g transform="scale(0.0092592592)">
                <path d="M -9,0 L -9,-45 C -9,-51.708 2.808,-56.580 9,-54 L 117,-9 C 120.916,-7.369 126.000,-4.242 126,0 C 126,4.242 120.916,7.369 117,9 L 9,54 C 2.808,56.580 -9,51.708 -9,45 z"/>
            </g>
        </marker>
        <marker id="DefaultArrow5" markerUnits="strokeWidth" viewBox="0 0 1 1" markerWidth="1" markerHeight="1" overflow="visible" orient="auto">
            <!-- REF_ARROW_SPOT -->
            <g transform="scale(0.0092592592)">
                <path d="M -54, 0 C -54,29.807 -29.807,54 0,54 C 29.807,54 54,29.807 54,0 C 54,-29.807 29.807,-54 0,-54 C -29.807,-54 -54,-29.807 -54,0 z"/>
            </g>
        </marker>
        <marker id="DefaultArrow6" markerUnits="strokeWidth" viewBox="0 0 1 1" markerWidth="1" markerHeight="1" overflow="visible" orient="auto">
            <!-- REF_ARROW_DIAMOND -->
            <g transform="scale(0.0092592592)">
                <path d="M -63,0 L 0,63 L 63,0 L 0,-63 z"/>
            </g>
        </marker>
        <marker id="DefaultArrow7" markerUnits="strokeWidth" viewBox="0 0 1 1" markerWidth="1" markerHeight="1" overflow="visible" orient="auto">
            <!-- REF_ARROW_FEATHER -->
            <g transform="scale(0.0092592592)">
                <path d="M 18,-54 L 108,-54 L 63,0 L 108,54 L 18, 54 L -36,0 z"/>
            </g>
        </marker>
        <marker id="DefaultArrow8" markerUnits="strokeWidth" viewBox="0 0 1 1" markerWidth="1" markerHeight="1" overflow="visible" orient="auto">
            <!-- REF_ARROW_FEATHER2 -->
            <g transform="scale(0.0092592592)">
                <path d="M -36,0 L 18,-54 L 54,-54 L 18,-18 L 27,-18 L 63,-54 L 99,-54 L 63,-18 L 72,-18 L 108,-54 L 144,-54 L 90,0 L 144,54 L 108,54 L 72,18 L 63,18 L 99,54 L 63,54 L 27,18 L 18,18 L 54,54 L 18,54 z"/>
            </g>
        </marker>
        <marker id="DefaultArrow9" markerUnits="strokeWidth" viewBox="0 0 1 1" markerWidth="1" markerHeight="1" overflow="visible" orient="auto">
            <!-- REF_ARROW_HOLLOWDIAMOND -->
            <g transform="scale(0.0092592592)">
                <path d="M 0,45 L -45,0 L 0, -45 L 45, 0 z M 0, 63 L-63, 0 L 0, -63 L 63, 0 z"/>
            </g>
        </marker>
        <filter id="StainedFilter">
            <feBlend mode="multiply" in2="BackgroundImage" in="SourceGraphic" result="blend"/>
            <feComposite in="blend" in2="SourceAlpha" operator="in" result="comp"/>
        </filter>
        <filter id="BleachFilter">
            <feBlend mode="screen" in2="BackgroundImage" in="SourceGraphic" result="blend"/>
            <feComposite in="blend" in2="SourceAlpha" operator="in" result="comp"/>
        </filter>
        <filter id="InvertTransparencyBitmapFilter">
            <feComponentTransfer>
                <feFuncR type="gamma" amplitude="1.055" exponent=".416666666" offset="-0.055"/>
                <feFuncG type="gamma" amplitude="1.055" exponent=".416666666" offset="-0.055"/>
                <feFuncB type="gamma" amplitude="1.055" exponent=".416666666" offset="-0.055"/>
            </feComponentTransfer>
            <feComponentTransfer>
                <feFuncR type="linear" slope="-1" intercept="1"/>
                <feFuncG type="linear" slope="-1" intercept="1"/>
                <feFuncB type="linear" slope="-1" intercept="1"/>
                <feFuncA type="linear" slope="1" intercept="0"/>
            </feComponentTransfer>
            <feComponentTransfer>
                <feFuncR type="gamma" amplitude="1" exponent="2.4" offset="0"/>
                <feFuncG type="gamma" amplitude="1" exponent="2.4" offset="0"/>
                <feFuncB type="gamma" amplitude="1" exponent="2.4" offset="0"/>
            </feComponentTransfer>
        </filter>
    </defs>
    <g id="Document" fill="none" stroke="black" font-family="Times New Roman" font-size="16" transform="scale(1 -1)">
        <g id="Spread" transform="translate(0 -59.244)">
            <g id="Layer 1">
                <g id="Group" stroke="none">
                    <g id="Group_1" stroke-linejoin="miter" stroke-linecap="round" stroke-width="0.809" stroke-miterlimit="79.8403193612775">
                        <path d="M 19.564,3.01 C 8.466,5.222 1.437,10.625 0.813,16.481 L 0.789,16.481 L 0.788,16.755 C 0.761,17.134 0.76,17.515 0.788,17.897 L 0.789,16.77 L 0.789,38.632 L 58.962,38.632 L 58.962,18.037 L 58.961,18.167 C 59.021,17.606 59.022,17.043 58.962,16.475 L 58.962,16.481 L 58.963,16.481 C 58.802,14.948 58.198,13.404 57.109,11.895 C 51.411,3.993 34.588,0.014 19.564,3.01 Z" fill="#566a7e" marker-start="none" marker-end="none"/>
                        <path d="M 2.665,43.495 C 8.364,51.396 25.186,55.376 40.212,52.379 C 55.238,49.383 62.808,40.536 57.109,32.635 C 51.41,24.734 34.588,20.755 19.562,23.751 C 4.536,26.747 -3.034,35.594 2.665,43.495 Z" fill="#657c93" marker-start="none" marker-end="none"/>
                        <path d="M 19.565,3.01 C 8.468,5.222 1.438,10.625 0.814,16.481 L 0.791,16.481 L 0.789,16.755 C 0.763,17.134 0.761,17.515 0.789,17.897 L 0.791,16.77 L 0.789,37.49 C 0.76,37.88 0.76,38.271 0.789,38.665 L 0.791,37.558 L 0.789,38.632 C 0.909,40.276 1.519,41.906 2.667,43.495 C 8.364,51.397 25.187,55.376 40.213,52.38 C 52.369,49.956 59.646,43.702 58.963,37.217 L 58.963,16.475 L 58.963,16.481 L 58.965,16.481 C 58.802,14.948 58.199,13.404 57.11,11.895 C 51.411,3.993 34.59,0.014 19.565,3.01 Z" marker-start="none" marker-end="none"/>
                    </g>
                    <g id="Group_2" fill-rule="evenodd" stroke-width="0.54" fill="#ffffff" stroke-miterlimit="79.8403193612775">
                        <path d="M 13.11,28.925 L 14.005,33.167 C 14.198,34.12 15.293,34.315 16.437,33.599 L 17.955,32.647 L 38.241,45.31 L 36.721,46.262 C 35.577,46.979 35.888,47.658 37.407,47.784 L 44.213,48.337 C 45.731,48.46 46.808,47.789 46.61,46.838 L 45.715,42.593 C 45.521,41.641 44.428,41.447 43.282,42.164 L 41.756,43.116 L 21.472,30.45 L 22.999,29.501 C 24.142,28.786 23.837,28.105 22.313,27.981 L 15.514,27.423 C 13.989,27.299 12.911,27.973 13.11,28.925 Z" marker-start="none" marker-end="none"/>
                        <path d="M 42.979,27.133 L 36.978,30.881 L 35.454,29.929 C 34.306,29.215 33.176,29.428 32.941,30.403 L 31.853,34.77 C 31.615,35.747 32.695,36.419 34.255,36.268 L 41.249,35.596 C 42.815,35.447 43.154,34.738 42.011,34.026 L 40.49,33.073 L 46.49,29.327 C 47.461,28.725 47.459,27.738 46.495,27.133 C 45.521,26.528 43.947,26.529 42.979,27.133 Z M 24.584,39.308 L 17.593,39.983 C 16.029,40.131 15.683,40.839 16.831,41.553 L 18.351,42.502 L 12.353,46.253 C 11.383,46.857 11.383,47.839 12.353,48.447 C 13.319,49.05 14.896,49.05 15.865,48.445 L 21.866,44.699 L 23.39,45.65 C 24.538,46.36 25.662,46.15 25.901,45.174 L 26.985,40.806 C 27.228,39.831 26.148,39.159 24.584,39.308 Z" marker-start="none" marker-end="none"/>
                    </g>
                    <g id="Group_3" fill-rule="nonzero" stroke-linejoin="round" stroke-linecap="round" stroke-width="0.404" fill="#ffffff" stroke-miterlimit="79.8403193612775">
                        <g id="Group_4">
                            <path d="M 21.073,9.313 L 19.955,9.313 L 18.737,11.351 C 18.493,11.759 18.271,12.036 18.068,12.183 C 17.866,12.33 17.625,12.403 17.343,12.403 L 16.661,12.403 L 16.661,9.313 L 15.713,9.313 L 15.713,16.654 L 17.95,16.654 C 18.664,16.654 19.223,16.482 19.628,16.138 C 20.032,15.793 20.234,15.312 20.234,14.692 C 20.234,13.675 19.691,13.015 18.604,12.711 L 18.604,12.687 C 18.806,12.602 18.981,12.481 19.128,12.323 C 19.275,12.165 19.465,11.895 19.699,11.512 L 21.073,9.313 Z M 16.661,15.825 L 16.661,13.233 L 17.779,13.233 C 18.212,13.233 18.564,13.359 18.834,13.612 C 19.104,13.865 19.239,14.196 19.239,14.607 C 19.239,14.989 19.116,15.288 18.869,15.503 C 18.623,15.718 18.264,15.825 17.794,15.825 L 16.661,15.825 Z" marker-start="none" marker-end="none"/>
                            <path d="M 21.278,11.877 C 21.278,12.743 21.519,13.426 22.003,13.927 C 22.486,14.428 23.142,14.678 23.97,14.678 C 24.757,14.678 25.373,14.437 25.82,13.955 C 26.268,13.474 26.491,12.808 26.491,11.958 C 26.491,11.13 26.253,10.462 25.775,9.953 C 25.298,9.444 24.659,9.19 23.856,9.19 C 23.072,9.19 22.447,9.436 21.979,9.929 C 21.512,10.422 21.278,11.071 21.278,11.877 Z M 22.226,11.905 C 22.226,11.302 22.378,10.827 22.683,10.479 C 22.988,10.131 23.398,9.958 23.913,9.958 C 24.444,9.958 24.848,10.128 25.126,10.467 C 25.404,10.807 25.543,11.294 25.543,11.929 C 25.543,12.568 25.404,13.057 25.126,13.398 C 24.848,13.74 24.444,13.91 23.913,13.91 C 23.391,13.91 22.98,13.732 22.678,13.375 C 22.376,13.018 22.226,12.528 22.226,11.905 Z" marker-start="none" marker-end="none"/>
                            <path d="M 32.126,9.313 L 31.192,9.313 L 31.192,10.138 L 31.173,10.138 C 30.822,9.506 30.283,9.19 29.557,9.19 C 28.315,9.19 27.694,9.932 27.694,11.417 L 27.694,14.555 L 28.614,14.555 L 28.614,11.555 C 28.614,10.49 29.021,9.958 29.836,9.958 C 30.241,9.958 30.568,10.107 30.817,10.406 C 31.067,10.704 31.192,11.081 31.192,11.536 L 31.192,14.555 L 32.126,14.555 L 32.126,9.313 Z" marker-start="none" marker-end="none"/>
                            <path d="M 36.296,9.365 C 36.094,9.255 35.821,9.199 35.476,9.199 C 34.538,9.199 34.069,9.719 34.069,10.759 L 34.069,13.787 L 33.168,13.787 L 33.168,14.555 L 34.069,14.555 L 34.069,15.816 L 34.993,16.109 L 34.993,14.555 L 36.296,14.555 L 36.296,13.787 L 34.993,13.787 L 34.993,10.924 C 34.993,10.58 35.051,10.334 35.168,10.185 C 35.285,10.037 35.479,9.962 35.751,9.962 C 35.96,9.962 36.141,10.021 36.296,10.138 L 36.296,9.365 Z" marker-start="none" marker-end="none"/>
                            <path d="M 41.586,11.697 L 37.917,11.697 C 37.933,11.138 38.086,10.706 38.377,10.401 C 38.668,10.096 39.074,9.943 39.595,9.943 C 40.183,9.943 40.722,10.131 41.211,10.507 L 41.211,9.678 C 40.75,9.353 40.138,9.19 39.377,9.19 C 38.619,9.19 38.027,9.43 37.602,9.91 C 37.177,10.391 36.965,11.057 36.965,11.91 C 36.965,12.713 37.198,13.375 37.664,13.896 C 38.13,14.417 38.709,14.678 39.401,14.678 C 40.086,14.678 40.622,14.458 41.007,14.017 C 41.393,13.576 41.586,12.959 41.586,12.166 L 41.586,11.697 Z M 40.657,12.441 C 40.654,12.915 40.541,13.281 40.32,13.541 C 40.099,13.8 39.788,13.929 39.387,13.929 C 39.017,13.929 38.697,13.792 38.427,13.517 C 38.157,13.242 37.987,12.883 37.917,12.441 L 40.657,12.441 Z" marker-start="none" marker-end="none"/>
                            <path d="M 45.633,13.635 C 45.478,13.746 45.265,13.801 44.993,13.801 C 44.633,13.801 44.336,13.633 44.102,13.297 C 43.868,12.96 43.751,12.517 43.751,11.967 L 43.751,9.313 L 42.822,9.313 L 42.822,14.555 L 43.751,14.555 L 43.751,13.489 L 43.77,13.489 C 44.036,14.259 44.494,14.645 45.145,14.645 C 45.356,14.645 45.519,14.621 45.633,14.574 L 45.633,13.635 Z" marker-start="none" marker-end="none"/>
                        </g>
                    </g>
                </g>
            </g>
        </g>
    </g>
</svg>
