<?xml version="1.0" standalone="no"?>
<!DOCTYPE svg PUBLIC "-//W3C//DTD SVG 1.1//EN" "http://www.w3.org/Graphics/SVG/1.1/DTD/svg11.dtd">
<!--Generator: Xara Designer (www.xara.com), SVG filter version: 4.0.0.1-->
<svg stroke-width="0.501" stroke-linejoin="bevel" fill-rule="evenodd" xmlns:xlink="http://www.w3.org/1999/xlink" xmlns="http://www.w3.org/2000/svg" version="1.1" overflow="visible" width="57pt" height="51pt" viewBox="0 0 57 51">
    <defs>
        <marker id="DefaultArrow2" markerUnits="strokeWidth" viewBox="0 0 1 1" markerWidth="1" markerHeight="1" overflow="visible" orient="auto">
            <!-- REF_ARROW_STRAIGHT (-2) -->
            <g transform="scale(0.0092592592)">
                <!-- 1/108 -->
                <path d="M -9 54 L -9 -54 L 117 0 z"/>
            </g>
        </marker>
        <marker id="DefaultArrow3" markerUnits="strokeWidth" viewBox="0 0 1 1" markerWidth="1" markerHeight="1" overflow="visible" orient="auto">
            <!-- REF_ARROW_ANGLED -->
            <g transform="scale(0.0092592592)">
                <path d="M -27 54 L -9 0 L -27 -54 L 135 0 z"/>
            </g>
        </marker>
        <marker id="DefaultArrow4" markerUnits="strokeWidth" viewBox="0 0 1 1" markerWidth="1" markerHeight="1" overflow="visible" orient="auto">
            <!-- REF_ARROW_ROUNDED -->
            <g transform="scale(0.0092592592)">
                <path d="M -9,0 L -9,-45 C -9,-51.708 2.808,-56.580 9,-54 L 117,-9 C 120.916,-7.369 126.000,-4.242 126,0 C 126,4.242 120.916,7.369 117,9 L 9,54 C 2.808,56.580 -9,51.708 -9,45 z"/>
            </g>
        </marker>
        <marker id="DefaultArrow5" markerUnits="strokeWidth" viewBox="0 0 1 1" markerWidth="1" markerHeight="1" overflow="visible" orient="auto">
            <!-- REF_ARROW_SPOT -->
            <g transform="scale(0.0092592592)">
                <path d="M -54, 0 C -54,29.807 -29.807,54 0,54 C 29.807,54 54,29.807 54,0 C 54,-29.807 29.807,-54 0,-54 C -29.807,-54 -54,-29.807 -54,0 z"/>
            </g>
        </marker>
        <marker id="DefaultArrow6" markerUnits="strokeWidth" viewBox="0 0 1 1" markerWidth="1" markerHeight="1" overflow="visible" orient="auto">
            <!-- REF_ARROW_DIAMOND -->
            <g transform="scale(0.0092592592)">
                <path d="M -63,0 L 0,63 L 63,0 L 0,-63 z"/>
            </g>
        </marker>
        <marker id="DefaultArrow7" markerUnits="strokeWidth" viewBox="0 0 1 1" markerWidth="1" markerHeight="1" overflow="visible" orient="auto">
            <!-- REF_ARROW_FEATHER -->
            <g transform="scale(0.0092592592)">
                <path d="M 18,-54 L 108,-54 L 63,0 L 108,54 L 18, 54 L -36,0 z"/>
            </g>
        </marker>
        <marker id="DefaultArrow8" markerUnits="strokeWidth" viewBox="0 0 1 1" markerWidth="1" markerHeight="1" overflow="visible" orient="auto">
            <!-- REF_ARROW_FEATHER2 -->
            <g transform="scale(0.0092592592)">
                <path d="M -36,0 L 18,-54 L 54,-54 L 18,-18 L 27,-18 L 63,-54 L 99,-54 L 63,-18 L 72,-18 L 108,-54 L 144,-54 L 90,0 L 144,54 L 108,54 L 72,18 L 63,18 L 99,54 L 63,54 L 27,18 L 18,18 L 54,54 L 18,54 z"/>
            </g>
        </marker>
        <marker id="DefaultArrow9" markerUnits="strokeWidth" viewBox="0 0 1 1" markerWidth="1" markerHeight="1" overflow="visible" orient="auto">
            <!-- REF_ARROW_HOLLOWDIAMOND -->
            <g transform="scale(0.0092592592)">
                <path d="M 0,45 L -45,0 L 0, -45 L 45, 0 z M 0, 63 L-63, 0 L 0, -63 L 63, 0 z"/>
            </g>
        </marker>
        <filter id="StainedFilter">
            <feBlend mode="multiply" in2="BackgroundImage" in="SourceGraphic" result="blend"/>
            <feComposite in="blend" in2="SourceAlpha" operator="in" result="comp"/>
        </filter>
        <filter id="BleachFilter">
            <feBlend mode="screen" in2="BackgroundImage" in="SourceGraphic" result="blend"/>
            <feComposite in="blend" in2="SourceAlpha" operator="in" result="comp"/>
        </filter>
        <filter id="InvertTransparencyBitmapFilter">
            <feComponentTransfer>
                <feFuncR type="gamma" amplitude="1.055" exponent=".416666666" offset="-0.055"/>
                <feFuncG type="gamma" amplitude="1.055" exponent=".416666666" offset="-0.055"/>
                <feFuncB type="gamma" amplitude="1.055" exponent=".416666666" offset="-0.055"/>
            </feComponentTransfer>
            <feComponentTransfer>
                <feFuncR type="linear" slope="-1" intercept="1"/>
                <feFuncG type="linear" slope="-1" intercept="1"/>
                <feFuncB type="linear" slope="-1" intercept="1"/>
                <feFuncA type="linear" slope="1" intercept="0"/>
            </feComponentTransfer>
            <feComponentTransfer>
                <feFuncR type="gamma" amplitude="1" exponent="2.4" offset="0"/>
                <feFuncG type="gamma" amplitude="1" exponent="2.4" offset="0"/>
                <feFuncB type="gamma" amplitude="1" exponent="2.4" offset="0"/>
            </feComponentTransfer>
        </filter>
        <linearGradient id="LinearGradient" gradientUnits="userSpaceOnUse" x1="0" y1="0" x2="28.712" y2="0" gradientTransform="translate(-0.001 11.964)">
            <stop offset="0" stop-color="#585a90"/>
            <stop offset="1" stop-color="#56578a"/>
        </linearGradient>
        <linearGradient id="LinearGradient_1" gradientUnits="userSpaceOnUse" x1="0" y1="0" x2="28.501" y2="0" gradientTransform="translate(28.5 11.964)">
            <stop offset="0" stop-color="#494a80"/>
            <stop offset="1" stop-color="#1c2e48"/>
        </linearGradient>
        <linearGradient id="LinearGradient_2" gradientUnits="userSpaceOnUse" x1="0" y1="0" x2="34.422" y2="0" gradientTransform="translate(14.936 17.869) rotate(23.8128)">
            <stop offset="0" stop-color="#494a80"/>
            <stop offset="1" stop-color="#2b375a"/>
        </linearGradient>
    </defs>
    <g id="Document" fill="none" stroke="black" font-family="Times New Roman" font-size="16" transform="scale(1 -1)">
        <g id="Spread" transform="translate(0 -51)">
            <g id="Layer 1"/>
            <g id="SVG Document">
                <g id="ClipView" stroke="none">
                    <path d="M 0,54 L 57,54 L 57,-3 L 0,-3 L 0,54"/>
                    <clipPath id="ClipPath">
                        <path d="M 0,-3 L 0,54 L 57,54 L 57,-3 L 0,-3 Z"/>
                    </clipPath>
                    <g clip-path="url(#ClipPath)">
                        <path d="M 28.711,0.061 L 0,11.989 L 0,23.811 L 28.711,17.267 Z" stroke-width="1.056" stroke-linejoin="miter" marker-start="none" marker-end="none" stroke-miterlimit="79.8403193612775" fill="url(#LinearGradient)"/>
                        <path d="M 28.5,0.061 L 57,11.989 L 57,23.811 L 28.5,17.267 Z" stroke-width="1.056" stroke-linejoin="miter" marker-start="none" marker-end="none" stroke-miterlimit="79.8403193612775" fill="url(#LinearGradient_1)"/>
                        <path d="M 28.5,11.989 L 0,23.811 L 28.5,35.739 L 57,23.811 Z" stroke-width="1.056" stroke-linejoin="miter" marker-start="none" marker-end="none" stroke-miterlimit="79.8403193612775" fill="url(#LinearGradient_2)"/>
                        <path d="M 25.967,4.389 L 4.644,13.361 C 4.539,13.466 4.433,13.572 4.433,13.678 L 4.433,17.267 C 4.433,17.478 4.644,17.689 4.855,17.583 L 26.283,8.611 C 26.389,8.505 26.494,8.4 26.494,8.294 L 26.494,4.705 C 26.494,4.494 26.178,4.283 25.967,4.389 Z" fill="#cccccc" stroke-width="1.056" stroke-linejoin="miter" marker-start="none" marker-end="none" stroke-miterlimit="79.8403193612775"/>
                        <mask id="TranspMask">
                            <rect x="-10%" y="-10%" width="120%" height="120%" fill="#808080" stroke="none"/>
                        </mask>
                        <g id="Group" stroke-linejoin="miter" stroke-width="1.056" fill="#191919" stroke-miterlimit="79.8403193612775" mask="url(#TranspMask)">
                            <path d="M 31.456,7.977 L 30.717,7.661 L 30.717,8.505 L 31.456,8.822 Z" marker-start="none" marker-end="none"/>
                            <path d="M 32.933,8.611 L 32.089,8.294 L 32.089,9.139 L 32.933,9.455 Z" marker-start="none" marker-end="none"/>
                            <path d="M 34.306,9.244 L 33.461,8.928 L 33.461,9.772 L 34.306,10.089 Z" marker-start="none" marker-end="none"/>
                            <path d="M 35.678,9.878 L 34.939,9.561 L 34.939,10.3 L 35.678,10.722 Z" marker-start="none" marker-end="none"/>
                            <path d="M 37.05,10.511 L 36.311,10.194 L 36.311,10.933 L 37.05,11.355 Z" marker-start="none" marker-end="none"/>
                            <path d="M 38.528,11.144 L 37.683,10.828 L 37.683,11.566 L 38.528,11.989 Z" marker-start="none" marker-end="none"/>
                            <path d="M 39.9,11.778 L 39.056,11.461 L 39.056,12.2 L 39.9,12.622 Z" marker-start="none" marker-end="none"/>
                            <path d="M 41.272,12.411 L 40.533,12.094 L 40.533,12.833 L 41.272,13.255 Z" marker-start="none" marker-end="none"/>
                            <path d="M 31.456,6.711 L 30.717,6.394 L 30.717,7.133 L 31.456,7.555 Z" marker-start="none" marker-end="none"/>
                            <path d="M 32.933,7.344 L 32.089,7.027 L 32.089,7.766 L 32.933,8.189 Z" marker-start="none" marker-end="none"/>
                            <path d="M 34.306,7.977 L 33.461,7.661 L 33.461,8.4 L 34.306,8.822 Z" marker-start="none" marker-end="none"/>
                            <path d="M 35.678,8.611 L 34.939,8.294 L 34.939,9.033 L 35.678,9.455 Z" marker-start="none" marker-end="none"/>
                            <path d="M 37.05,9.244 L 36.311,8.928 L 36.311,9.666 L 37.05,10.089 Z" marker-start="none" marker-end="none"/>
                            <path d="M 38.528,9.878 L 37.683,9.561 L 37.683,10.3 L 38.528,10.722 Z" marker-start="none" marker-end="none"/>
                            <path d="M 39.9,10.511 L 39.056,10.194 L 39.056,10.933 L 39.9,11.355 Z" marker-start="none" marker-end="none"/>
                            <path d="M 41.272,11.144 L 40.533,10.828 L 40.533,11.566 L 41.272,11.989 Z" marker-start="none" marker-end="none"/>
                            <path d="M 31.456,5.444 L 30.717,5.127 L 30.717,5.866 L 31.456,6.289 Z" marker-start="none" marker-end="none"/>
                            <path d="M 32.933,6.077 L 32.089,5.761 L 32.089,6.5 L 32.933,6.922 Z" marker-start="none" marker-end="none"/>
                            <path d="M 34.306,6.711 L 33.461,6.394 L 33.461,7.133 L 34.306,7.555 Z" marker-start="none" marker-end="none"/>
                            <path d="M 35.678,7.344 L 34.939,7.027 L 34.939,7.766 L 35.678,8.189 Z" marker-start="none" marker-end="none"/>
                            <path d="M 37.05,7.977 L 36.311,7.661 L 36.311,8.4 L 37.05,8.822 Z" marker-start="none" marker-end="none"/>
                            <path d="M 38.528,8.611 L 37.683,8.294 L 37.683,9.033 L 38.528,9.351 Z" marker-start="none" marker-end="none"/>
                            <path d="M 39.9,9.244 L 39.056,8.822 L 39.056,9.666 L 39.9,9.983 Z" marker-start="none" marker-end="none"/>
                            <path d="M 41.272,9.878 L 40.533,9.455 L 40.533,10.3 L 41.272,10.616 Z" marker-start="none" marker-end="none"/>
                            <path d="M 31.456,4.177 L 30.717,3.861 L 30.717,4.6 L 31.456,5.022 Z" marker-start="none" marker-end="none"/>
                            <path d="M 32.933,4.811 L 32.089,4.494 L 32.089,5.233 L 32.933,5.655 Z" marker-start="none" marker-end="none"/>
                            <path d="M 34.306,5.444 L 33.461,5.127 L 33.461,5.866 L 34.306,6.183 Z" marker-start="none" marker-end="none"/>
                            <path d="M 35.678,6.077 L 34.939,5.761 L 34.939,6.5 L 35.678,6.816 Z" marker-start="none" marker-end="none"/>
                            <path d="M 37.05,6.711 L 36.311,6.289 L 36.311,7.133 L 37.05,7.451 Z" marker-start="none" marker-end="none"/>
                            <path d="M 38.528,7.344 L 37.683,6.922 L 37.683,7.766 L 38.528,8.083 Z" marker-start="none" marker-end="none"/>
                            <path d="M 39.9,7.977 L 39.056,7.555 L 39.056,8.4 L 39.9,8.716 Z" marker-start="none" marker-end="none"/>
                            <path d="M 41.272,8.611 L 40.533,8.189 L 40.533,9.033 L 41.272,9.351 Z" marker-start="none" marker-end="none"/>
                        </g>
                        <mask id="TranspMask_1">
                            <rect x="-10%" y="-10%" width="120%" height="120%" fill="#808080" stroke="none"/>
                        </mask>
                        <g id="Group_1" stroke-linejoin="miter" stroke-width="1.056" fill="#191919" stroke-miterlimit="79.8403193612775" mask="url(#TranspMask_1)">
                            <path d="M 45.6,14.1 L 44.861,13.783 L 44.861,14.522 L 45.6,14.839 Z" marker-start="none" marker-end="none"/>
                            <path d="M 47.078,14.733 L 46.233,14.311 L 46.233,15.155 L 47.078,15.472 Z" marker-start="none" marker-end="none"/>
                            <path d="M 48.45,15.367 L 47.606,14.944 L 47.606,15.789 L 48.45,16.105 Z" marker-start="none" marker-end="none"/>
                            <path d="M 49.822,16 L 49.084,15.578 L 49.084,16.422 L 49.822,16.739 Z" marker-start="none" marker-end="none"/>
                            <path d="M 51.3,16.633 L 50.456,16.211 L 50.456,17.055 L 51.3,17.372 Z" marker-start="none" marker-end="none"/>
                            <path d="M 52.672,17.267 L 51.828,16.844 L 51.828,17.689 L 52.672,18.005 Z" marker-start="none" marker-end="none"/>
                            <path d="M 54.045,17.9 L 53.306,17.478 L 53.306,18.322 L 54.045,18.639 Z" marker-start="none" marker-end="none"/>
                            <path d="M 55.417,18.533 L 54.678,18.111 L 54.678,18.955 L 55.417,19.272 Z" marker-start="none" marker-end="none"/>
                            <path d="M 45.6,12.833 L 44.861,12.411 L 44.861,13.255 L 45.6,13.572 Z" marker-start="none" marker-end="none"/>
                            <path d="M 47.078,13.466 L 46.233,13.044 L 46.233,13.889 L 47.078,14.205 Z" marker-start="none" marker-end="none"/>
                            <path d="M 48.45,14.1 L 47.606,13.678 L 47.606,14.522 L 48.45,14.839 Z" marker-start="none" marker-end="none"/>
                            <path d="M 49.822,14.733 L 49.084,14.311 L 49.084,15.155 L 49.822,15.472 Z" marker-start="none" marker-end="none"/>
                            <path d="M 51.3,15.367 L 50.456,14.944 L 50.456,15.789 L 51.3,16.105 Z" marker-start="none" marker-end="none"/>
                            <path d="M 52.672,16 L 51.828,15.578 L 51.828,16.422 L 52.672,16.739 Z" marker-start="none" marker-end="none"/>
                            <path d="M 54.045,16.528 L 53.306,16.211 L 53.306,17.055 L 54.045,17.372 Z" marker-start="none" marker-end="none"/>
                            <path d="M 55.417,17.161 L 54.678,16.844 L 54.678,17.689 L 55.417,18.005 Z" marker-start="none" marker-end="none"/>
                            <path d="M 45.6,11.566 L 44.861,11.144 L 44.861,11.989 L 45.6,12.305 Z" marker-start="none" marker-end="none"/>
                            <path d="M 47.078,12.2 L 46.233,11.778 L 46.233,12.622 L 47.078,12.939 Z" marker-start="none" marker-end="none"/>
                            <path d="M 48.45,12.833 L 47.606,12.411 L 47.606,13.255 L 48.45,13.572 Z" marker-start="none" marker-end="none"/>
                            <path d="M 49.822,13.361 L 49.084,13.044 L 49.084,13.889 L 49.822,14.205 Z" marker-start="none" marker-end="none"/>
                            <path d="M 51.3,13.994 L 50.456,13.678 L 50.456,14.522 L 51.3,14.839 Z" marker-start="none" marker-end="none"/>
                            <path d="M 52.672,14.628 L 51.828,14.311 L 51.828,15.155 L 52.672,15.472 Z" marker-start="none" marker-end="none"/>
                            <path d="M 54.045,15.261 L 53.306,14.944 L 53.306,15.683 L 54.045,16.105 Z" marker-start="none" marker-end="none"/>
                            <path d="M 55.417,15.894 L 54.678,15.578 L 54.678,16.317 L 55.417,16.739 Z" marker-start="none" marker-end="none"/>
                            <path d="M 45.6,10.194 L 44.861,9.878 L 44.861,10.722 L 45.6,11.039 Z" marker-start="none" marker-end="none"/>
                            <path d="M 47.078,10.828 L 46.233,10.511 L 46.233,11.355 L 47.078,11.672 Z" marker-start="none" marker-end="none"/>
                            <path d="M 48.45,11.461 L 47.606,11.144 L 47.606,11.989 L 48.45,12.305 Z" marker-start="none" marker-end="none"/>
                            <path d="M 49.822,12.094 L 49.084,11.778 L 49.084,12.622 L 49.822,12.939 Z" marker-start="none" marker-end="none"/>
                            <path d="M 51.3,12.728 L 50.456,12.411 L 50.456,13.151 L 51.3,13.572 Z" marker-start="none" marker-end="none"/>
                            <path d="M 52.672,13.361 L 51.828,13.044 L 51.828,13.783 L 52.672,14.205 Z" marker-start="none" marker-end="none"/>
                            <path d="M 54.045,13.994 L 53.306,13.678 L 53.306,14.416 L 54.045,14.839 Z" marker-start="none" marker-end="none"/>
                            <path d="M 55.417,14.628 L 54.678,14.311 L 54.678,15.051 L 55.417,15.472 Z" marker-start="none" marker-end="none"/>
                        </g>
                        <path d="M 14.672,40.7 C 14.672,43.761 17.205,46.295 20.267,46.295 C 21.428,46.295 22.483,45.978 23.328,45.345 C 25.544,48.722 29.45,50.939 33.778,50.939 C 40.111,50.939 45.283,46.295 46.233,40.278 C 49.717,39.011 52.145,35.739 52.145,31.833 C 52.145,26.872 48.134,22.967 43.278,22.967 L 14.778,22.967 C 9.816,22.967 5.911,26.978 5.911,31.833 C 5.911,36.689 9.711,40.7 14.672,40.7 Z" fill="#1ec778" stroke-width="1.056" stroke-linejoin="miter" marker-start="none" marker-end="none" stroke-miterlimit="79.8403193612775"/>
                        <path d="M 6.544,14.944 L 6.544,15.261 L 5.805,15.578 L 5.805,15.261 L 5.489,15.367 L 5.489,14.416 L 6.861,13.783 L 6.861,14.733 Z" fill="#191919" stroke-width="1.056" stroke-linejoin="miter" marker-start="none" marker-end="none" stroke-miterlimit="79.8403193612775"/>
                        <path d="M 9.183,13.783 L 9.183,14.1 L 8.444,14.522 L 8.444,14.1 L 8.127,14.311 L 8.127,13.255 L 9.5,12.728 L 9.5,13.678 Z" fill="#191919" stroke-width="1.056" stroke-linejoin="miter" marker-start="none" marker-end="none" stroke-miterlimit="79.8403193612775"/>
                        <path d="M 11.822,12.728 L 11.822,13.044 L 10.977,13.361 L 11.083,13.044 L 10.766,13.151 L 10.766,12.2 L 12.139,11.566 L 12.139,12.516 Z" fill="#191919" stroke-width="1.056" stroke-linejoin="miter" marker-start="none" marker-end="none" stroke-miterlimit="79.8403193612775"/>
                        <path d="M 14.461,11.566 L 14.461,11.883 L 13.616,12.305 L 13.722,11.883 L 13.405,12.094 L 13.405,11.039 L 14.778,10.511 L 14.778,11.461 Z" fill="#191919" stroke-width="1.056" stroke-linejoin="miter" marker-start="none" marker-end="none" stroke-miterlimit="79.8403193612775"/>
                        <path d="M 17.1,10.511 L 17.1,10.828 L 16.255,11.144 L 16.361,10.828 L 16.044,10.933 L 16.044,9.983 L 17.416,9.351 L 17.416,10.3 Z" fill="#191919" stroke-width="1.056" stroke-linejoin="miter" marker-start="none" marker-end="none" stroke-miterlimit="79.8403193612775"/>
                        <path d="M 19.739,9.351 L 19.739,9.666 L 18.894,10.089 L 19,9.666 L 18.683,9.878 L 18.683,8.822 L 20.055,8.294 L 20.055,9.244 Z" fill="#191919" stroke-width="1.056" stroke-linejoin="miter" marker-start="none" marker-end="none" stroke-miterlimit="79.8403193612775"/>
                        <path d="M 22.378,8.294 L 22.378,8.611 L 21.533,8.928 L 21.639,8.611 L 21.322,8.716 L 21.322,7.766 L 22.694,7.133 L 22.694,8.083 Z" fill="#191919" stroke-width="1.056" stroke-linejoin="miter" marker-start="none" marker-end="none" stroke-miterlimit="79.8403193612775"/>
                        <path d="M 25.017,7.133 L 25.017,7.451 L 24.172,7.872 L 24.172,7.451 L 23.961,7.661 L 23.961,6.605 L 25.333,6.077 L 25.333,7.027 Z" fill="#191919" stroke-width="1.056" stroke-linejoin="miter" marker-start="none" marker-end="none" stroke-miterlimit="79.8403193612775"/>
                        <path d="M 11.083,30.461 C 11.611,30.672 12.244,30.883 12.772,31.094 L 12.772,33.206 L 11.928,33.206 C 11.822,32.678 11.611,32.151 11.505,31.622 C 11.294,31.728 11.083,31.939 10.872,32.044 C 11.189,32.889 11.4,33.839 11.505,35 L 12.139,34.894 C 12.139,34.472 12.033,34.156 12.033,33.839 L 12.772,33.839 L 12.772,35.844 L 13.405,35.844 L 13.405,33.839 L 14.25,33.839 L 14.25,33.206 L 13.405,33.206 L 13.405,31.306 C 13.722,31.411 14.039,31.517 14.355,31.622 C 14.355,31.306 14.461,31.094 14.461,30.883 C 14.144,30.778 13.828,30.672 13.511,30.461 L 13.511,26.872 L 12.878,26.872 L 12.878,30.251 C 12.35,30.039 11.822,29.828 11.294,29.617 L 11.083,30.461 Z M 14.039,32.361 C 14.672,33.311 15.2,34.472 15.622,35.951 L 16.255,35.739 C 16.044,35.211 15.939,34.789 15.728,34.367 L 19.633,34.367 C 19.528,31.939 19.422,30.039 19.317,28.772 C 19.211,27.717 18.789,27.294 17.839,27.294 C 17.522,27.294 17.1,27.294 16.678,27.294 C 16.678,27.506 16.572,27.822 16.572,28.033 C 17.1,27.928 17.522,27.928 17.839,27.928 C 18.367,27.928 18.578,28.244 18.683,28.772 C 18.789,30.039 18.894,31.728 19,33.628 L 18.261,33.628 C 18.155,32.044 17.839,30.883 17.522,30.039 C 16.994,28.878 16.255,27.928 15.094,27.083 C 14.989,27.294 14.778,27.506 14.672,27.611 C 15.833,28.456 16.572,29.3 16.994,30.356 C 17.311,31.2 17.522,32.256 17.628,33.628 L 16.783,33.628 C 16.572,32.467 16.361,31.517 16.044,30.883 C 15.622,30.144 15.094,29.406 14.461,28.772 C 14.355,28.983 14.144,29.089 14.039,29.3 C 14.778,29.933 15.2,30.567 15.516,31.2 C 15.833,31.833 16.044,32.678 16.15,33.733 L 15.516,33.733 C 15.2,33.1 14.883,32.467 14.566,31.939 C 14.461,32.151 14.25,32.256 14.039,32.361 Z" fill="#ffffff" stroke-width="1.056" stroke-linejoin="miter" marker-start="none" marker-end="none" stroke-miterlimit="79.8403193612775"/>
                        <path d="M 20.267,28.456 C 20.689,28.561 21.217,28.667 21.639,28.772 L 21.639,31.517 L 20.478,31.517 L 20.478,32.151 L 21.639,32.151 L 21.639,34.367 L 20.372,34.367 L 20.372,35 L 23.433,35 L 23.433,34.367 L 22.167,34.367 L 22.167,32.151 L 23.328,32.151 L 23.328,31.517 L 22.167,31.517 L 22.167,28.983 C 22.589,29.089 22.905,29.194 23.328,29.3 C 23.328,28.983 23.433,28.772 23.433,28.561 C 22.378,28.244 21.428,28.033 20.372,27.717 L 20.267,28.456 Z M 23.117,27.928 L 25.967,27.928 L 25.967,29.194 L 23.644,29.194 L 23.644,29.828 L 25.967,29.828 L 25.967,30.989 L 24.489,30.989 L 24.489,30.778 L 23.855,30.778 L 23.855,35.422 L 28.711,35.422 L 28.711,30.778 L 28.078,30.778 L 28.078,31.094 L 26.6,31.094 L 26.6,29.933 L 28.922,29.933 L 28.922,29.3 L 26.6,29.3 L 26.6,28.033 L 29.344,28.033 L 29.344,27.4 L 23.117,27.4 L 23.117,27.928 Z M 24.489,33.522 L 25.967,33.522 L 25.967,34.789 L 24.489,34.789 L 24.489,33.522 Z M 24.489,31.728 L 25.967,31.728 L 25.967,32.994 L 24.489,32.994 L 24.489,31.728 Z M 28.078,34.789 L 26.6,34.789 L 26.6,33.522 L 28.078,33.522 L 28.078,34.789 Z M 26.6,31.728 L 28.078,31.728 L 28.078,32.994 L 26.6,32.994 L 26.6,31.728 Z" fill="#ffffff" stroke-width="1.056" stroke-linejoin="miter" marker-start="none" marker-end="none" stroke-miterlimit="79.8403193612775"/>
                        <path d="M 36.839,31.306 L 36.839,31.622 L 34.411,31.622 L 34.411,28.033 L 37.05,28.033 L 37.05,30.567 L 37.789,30.567 L 37.789,26.978 L 37.05,26.978 L 37.05,27.294 L 30.294,27.294 L 30.294,30.567 L 31.033,30.567 L 31.033,28.033 L 33.672,28.033 L 33.672,31.622 L 30.506,31.622 L 30.506,34.894 L 31.244,34.894 L 31.244,32.361 L 33.567,32.361 L 33.567,35.739 L 34.306,35.739 L 34.306,32.361 L 36.733,32.361 L 36.733,34.894 L 37.472,34.894 L 37.472,31.306 L 36.839,31.306 Z" fill="#ffffff" stroke-width="1.056" stroke-linejoin="miter" marker-start="none" marker-end="none" stroke-miterlimit="79.8403193612775"/>
                        <path d="M 39.689,35 L 46.867,35 L 46.867,27.4 L 46.128,27.4 L 46.128,28.244 L 40.533,28.244 L 40.533,27.4 L 39.795,27.4 L 39.795,35 Z M 46.128,28.878 L 46.128,34.261 L 40.533,34.261 L 40.533,28.878 L 46.128,28.878 Z" fill="#ffffff" stroke-width="1.056" stroke-linejoin="miter" marker-start="none" marker-end="none" stroke-miterlimit="79.8403193612775"/>
                    </g>
                </g>
            </g>
        </g>
    </g>
</svg>
