<?xml version="1.0" standalone="no"?><!DOCTYPE svg PUBLIC "-//W3C//DTD SVG 1.1//EN"
  "http://www.w3.org/Graphics/SVG/1.1/DTD/svg11.dtd">
<svg t="1653976428222" class="icon" viewBox="0 0 1024 1024" version="1.1" xmlns="http://www.w3.org/2000/svg"
     p-id="13363" xmlns:xlink="http://www.w3.org/1999/xlink" width="200" height="200">
  <defs>
    <style type="text/css"></style>
  </defs>
  <path
    d="M553.714286 601.714286l84.571429 84.571429-85.142857 85.142857zm-0.571429-349.142857l85.142857 85.142857-84.571429 84.571429zm-74.285714 699.428571l265.142857-265.142857-174.857143-174.857143 174.857143-174.857143-265.142857-265.142857 0 349.142857-145.714286-145.714286-53.142857 53.142857 182.857143 183.428571-182.857143 183.428571 53.142857 53.142857 145.714286-145.714286 0 349.142857zm410.857143-440q0 119.428571-18.285714 208.857143t-50 146.857143-80.285714 92.857143-103.714286 49.428571-125.428571 14-125.428571-14-103.714286-49.428571-80.285714-92.857143-50-146.857143-18.285714-208.857143 18.285714-208.857143 50-146.857143 80.285714-92.857143 103.714286-49.428571 125.428571-14 125.428571 14 103.714286 49.428571 80.285714 92.857143 50 146.857143 18.285714 208.857143z"
    p-id="13364"></path>
</svg>
